<?xml version="1.0" encoding="UTF-8" standalone="no"?>
<svg
   version="1.0"
   width="1280.000000pt"
   height="794.000000pt"
   viewBox="0 0 1280.000000 794.000000"
   preserveAspectRatio="xMidYMid meet"
   id="svg20"
   sodipodi:docname="manette.svg"
   inkscape:version="1.2.2 (732a01da63, 2022-12-09)"
   xmlns:inkscape="http://www.inkscape.org/namespaces/inkscape"
   xmlns:sodipodi="http://sodipodi.sourceforge.net/DTD/sodipodi-0.dtd"
   xmlns="http://www.w3.org/2000/svg"
   xmlns:svg="http://www.w3.org/2000/svg">
  <defs
     id="defs24" />
  <sodipodi:namedview
     id="namedview22"
     pagecolor="#ffffff"
     bordercolor="#000000"
     borderopacity="0.25"
     inkscape:showpageshadow="2"
     inkscape:pageopacity="0.0"
     inkscape:pagecheckerboard="0"
     inkscape:deskcolor="#d1d1d1"
     inkscape:document-units="pt"
     showgrid="false"
     inkscape:zoom="0.52991577"
     inkscape:cx="792.5788"
     inkscape:cy="547.25679"
     inkscape:window-width="1920"
     inkscape:window-height="1017"
     inkscape:window-x="1912"
     inkscape:window-y="-8"
     inkscape:window-maximized="1"
     inkscape:current-layer="g18" />
  <metadata
     id="metadata14">
Created by potrace 1.15, written by Peter Selinger 2001-2017
</metadata>
  <g
     transform="translate(0.000000,794.000000) scale(0.100000,-0.100000)"
     fill="#000000"
     stroke="none"
     id="g18">
    <path
       d="m 2700.0992,7664.2798 c -13.0474,-1.8639 -54.9855,-8.3876 -93.1957,-13.9794 -167.7521,-23.2989 -303.8178,-79.2163 -390.4897,-161.2284 -28.8907,-27.0268 -71.7607,-59.6452 -95.0596,-73.6246 -59.6452,-33.5504 -114.6306,-97.8554 -132.3378,-151.9089 -14.9113,-45.6658 -49.3937,-246.9684 -96.9234,-561.0377 l -25.1629,-169.6161 -31.6865,-19.5711 c -112.7667,-66.1689 -324.3208,-256.288 -429.6319,-385.8299 -150.045,-183.5954 -267.4715,-402.6052 -344.8239,-643.05 C 1003.0065,5305.4981 869.73678,4485.3765 659.11463,3005.4297 550.07574,2240.2935 523.98096,2065.0857 471.7914,1751.9483 c -33.55043,-199.4386 -38.21022,-240.4447 -33.55043,-321.5249 9.31956,-154.7048 36.3463,-259.0839 104.37911,-400.7413 217.14585,-451.99883 783.77532,-782.84336 1294.48742,-756.74858 391.4217,20.50304 704.5591,215.28193 917.9771,570.35732 89.4678,148.18107 356.9393,654.23336 685.9199,1296.35136 l 185.4593,363.463 53.1215,-74.5565 c 190.1192,-264.6756 480.8896,-443.6113 801.4826,-490.2091 52.1895,-7.4556 129.5419,-10.2515 223.6695,-6.5237 150.045,5.5918 237.6489,21.435 364.3949,67.1009 256.2881,92.2637 493.9369,295.4302 627.2067,535.8749 l 46.5978,82.9441 640.2541,0.932 h 639.3221 l 34.4824,-62.4411 c 180.7995,-328.9806 486.4812,-548.9223 849.9442,-613.2273 106.243,-17.7072 302.8858,-17.7072 409.1289,0 328.9806,57.7813 612.2953,246.0365 799.6186,530.2832 l 41.006,61.5091 242.3087,-472.5019 c 406.333,-794.9588 615.0912,-1181.7207 705.4912,-1312.1946 332.708,-478.09363 929.16,-611.3634 1509.769,-336.43626 435.224,205.96237 726.926,599.24796 746.497,1007.44486 4.66,94.1276 0.932,126.7461 -42.87,382.1021 -26.095,153.7728 -101.583,661.6891 -168.684,1127.6673 -66.169,466.9102 -139.793,973.8944 -163.092,1127.6672 -86.672,577.813 -210.622,1325.2421 -226.466,1360.6564 -4.659,10.2515 -24.23,65.2369 -42.87,121.1543 -133.269,403.5372 -422.176,767.9321 -785.639,993.4656 l -64.305,39.1421 -11.183,84.8081 c -28.891,204.0984 -95.992,588.9964 -109.039,618.819 -21.435,53.1215 -56.85,93.1957 -113.699,129.542 -29.823,18.6391 -71.761,52.1895 -95.059,73.6245 -88.536,83.8761 -208.759,136.9976 -382.103,168.6841 -125.814,23.2989 -425.9037,22.367 -554.5136,-0.9319 -165.8883,-29.8226 -317.7972,-99.7194 -379.3063,-171.48 -12.1154,-13.9794 -41.938,-37.2783 -66.1689,-51.2576 -68.0328,-40.0741 -106.243,-77.3524 -131.4059,-130.4739 -22.3669,-46.5978 -50.3256,-195.7109 -118.3584,-637.4582 l -20.5031,-133.2698 H 7842.6346 c -1029.8118,0 -1043.7912,0 -1067.0901,-18.6391 -23.2989,-17.7072 -38.2102,-18.6391 -398.8773,-18.6391 -362.5311,0 -374.6465,0.9319 -391.4217,18.6391 -16.7752,18.6391 -28.8907,18.6391 -1067.0901,18.6391 -829.4412,0 -1053.1107,2.7959 -1059.6344,12.1155 -5.5918,5.5917 -18.6392,74.5565 -29.8226,150.9769 -46.5978,313.1374 -94.1276,574.0852 -111.8348,608.5675 -20.503,41.0061 -86.6719,104.3792 -132.3378,128.61 -17.7072,8.3876 -56.8493,39.1422 -87.6039,68.0328 -95.0596,88.5359 -222.7376,137.9296 -422.1763,164.0244 -94.1276,12.1154 -313.1373,16.7752 -374.6464,8.3876 z"
       id="path16"
       style="fill:none;fill-opacity:1;stroke:#000000;stroke-width:150;stroke-dasharray:none;stroke-opacity:1" />
  </g>
</svg>
